<svg width="171" height="25" viewBox="0 0 171 25" fill="none" xmlns="http://www.w3.org/2000/svg">
<path fill-rule="evenodd" clip-rule="evenodd" d="M11.3772 1.06428C11.9634 -0.354762 13.9626 -0.354762 14.5487 1.06428L17.2727 7.66147L24.3432 8.23198C25.8661 8.35452 26.4837 10.2677 25.3231 11.269L19.9366 15.9162L21.5812 22.8638C21.9358 24.3606 20.3199 25.5425 19.0168 24.7414L12.963 21.0179L6.90913 24.7414C5.606 25.5425 3.99016 24.3593 4.34473 22.8638L5.98935 15.9162L0.602789 11.269C-0.557736 10.2677 0.0598152 8.35452 1.58276 8.23198L8.65319 7.66147L11.3772 1.06428Z" fill="#029BE6"/>
<path fill-rule="evenodd" clip-rule="evenodd" d="M47.488 1.06428C48.0742 -0.354762 50.0734 -0.354762 50.6595 1.06428L53.3835 7.66147L60.454 8.23198C61.9769 8.35452 62.5945 10.2677 61.4339 11.269L56.0474 15.9162L57.692 22.8638C58.0466 24.3606 56.4307 25.5425 55.1276 24.7414L49.0738 21.0179L43.0199 24.7414C41.7168 25.5425 40.101 24.3593 40.4555 22.8638L42.1002 15.9162L36.7136 11.269C35.5531 10.2677 36.1706 8.35452 37.6936 8.23198L44.764 7.66147L47.488 1.06428Z" fill="#029BE6"/>
<path fill-rule="evenodd" clip-rule="evenodd" d="M83.5991 1.06428C84.1853 -0.354762 86.1845 -0.354762 86.7706 1.06428L89.4947 7.66147L96.5651 8.23198C98.088 8.35452 98.7056 10.2677 97.5451 11.269L92.1585 15.9162L93.8031 22.8638C94.1577 24.3606 92.5419 25.5425 91.2387 24.7414L85.1849 21.0179L79.1311 24.7414C77.8279 25.5425 76.2121 24.3593 76.5667 22.8638L78.2113 15.9162L72.8247 11.269C71.6642 10.2677 72.2817 8.35452 73.8047 8.23198L80.8751 7.66147L83.5991 1.06428Z" fill="#029BE6"/>
<path fill-rule="evenodd" clip-rule="evenodd" d="M119.711 1.06428C120.297 -0.354762 122.296 -0.354762 122.882 1.06428L125.606 7.66147L132.677 8.23198C134.199 8.35452 134.817 10.2677 133.657 11.269L128.27 15.9162L129.915 22.8638C130.269 24.3606 128.653 25.5425 127.35 24.7414L121.296 21.0179L115.243 24.7414C113.939 25.5425 112.324 24.3593 112.678 22.8638L114.323 15.9162L108.936 11.269C107.776 10.2677 108.393 8.35452 109.916 8.23198L116.987 7.66147L119.711 1.06428Z" fill="#029BE6"/>
<path fill-rule="evenodd" clip-rule="evenodd" d="M155.822 1.06428C156.408 -0.354762 158.407 -0.354762 158.993 1.06428L161.717 7.66147L168.788 8.23198C170.311 8.35452 170.928 10.2677 169.768 11.269L164.381 15.9162L166.026 22.8638C166.38 24.3606 164.764 25.5425 163.461 24.7414L157.407 21.0179L151.354 24.7414C150.05 25.5425 148.435 24.3593 148.789 22.8638L150.434 15.9162L145.047 11.269C143.887 10.2677 144.504 8.35452 146.027 8.23198L153.098 7.66147L155.822 1.06428Z" fill="#029BE6"/>
</svg>
