<svg width="108" height="110" viewBox="0 0 108 110" fill="none" xmlns="http://www.w3.org/2000/svg">
<ellipse cx="53.5734" cy="54.7132" rx="53.5734" ry="54.7133" fill="#232323"/>
<path d="M47.04 41.08V60.68C47.04 63.4 46.2533 65.52 44.68 67.04C43.1067 68.5333 41 69.28 38.36 69.28C35.6933 69.28 33.5333 68.5067 31.88 66.96C30.2533 65.4133 29.44 63.2533 29.44 60.48H35.04C35.0667 61.68 35.3467 62.6133 35.88 63.28C36.44 63.9467 37.24 64.28 38.28 64.28C39.2933 64.28 40.0667 63.96 40.6 63.32C41.1333 62.68 41.4 61.8 41.4 60.68V41.08H47.04ZM59.0925 41.08V58.36C59.0925 60.2533 59.5858 61.7067 60.5725 62.72C61.5592 63.7067 62.9458 64.2 64.7325 64.2C66.5458 64.2 67.9458 63.7067 68.9325 62.72C69.9192 61.7067 70.4125 60.2533 70.4125 58.36V41.08H76.0525V58.32C76.0525 60.6933 75.5325 62.7067 74.4925 64.36C73.4792 65.9867 72.1058 67.2133 70.3725 68.04C68.6658 68.8667 66.7592 69.28 64.6525 69.28C62.5725 69.28 60.6792 68.8667 58.9725 68.04C57.2925 67.2133 55.9592 65.9867 54.9725 64.36C53.9858 62.7067 53.4925 60.6933 53.4925 58.32V41.08H59.0925Z" fill="#B6B6B6"/>
</svg>
