<svg width="58" height="45" viewBox="0 0 58 45" fill="none" xmlns="http://www.w3.org/2000/svg">
<rect x="1" y="1" width="56" height="43" rx="21.5" stroke="#F7F7F7" stroke-width="2"/>
<path d="M29.4997 24.7273C29.7004 24.7273 29.8638 24.8899 29.864 25.0906V31.1365C29.8639 31.3373 29.7005 31.4997 29.4997 31.4997C29.299 31.4995 29.1365 31.3371 29.1364 31.1365V25.0906L29.1442 25.0173C29.1783 24.8519 29.3242 24.7274 29.4997 24.7273Z" fill="#F7F7F7" stroke="#F7F7F7"/>
<path d="M29.4997 13.5C29.7004 13.5 29.8638 13.6626 29.864 13.8633V19.9092C29.8639 20.11 29.7005 20.2725 29.4997 20.2725C29.2991 20.2723 29.1365 20.1099 29.1364 19.9092V13.8633L29.1442 13.79C29.1783 13.6246 29.3243 13.5002 29.4997 13.5Z" fill="#F7F7F7" stroke="#F7F7F7"/>
<path d="M32.6974 27.4247C32.8216 27.3005 33.0134 27.2848 33.1545 27.3778L33.2121 27.4247C33.3362 27.5489 33.3511 27.7406 33.258 27.8817L33.2121 27.9393L29.757 31.3934C29.6328 31.5176 29.4411 31.5334 29.3 31.4403L29.2433 31.3934L25.7883 27.9393C25.664 27.815 25.6481 27.6224 25.7414 27.4813L25.7883 27.4247C25.9124 27.3005 26.1042 27.2848 26.2453 27.3778L26.3029 27.4247L29.5002 30.6219L32.6974 27.4247Z" fill="#F7F7F7" stroke="#F7F7F7"/>
<path d="M29.2433 13.6064C29.3676 13.4824 29.5593 13.4664 29.7004 13.5596L29.757 13.6064L33.2121 17.0615C33.336 17.1859 33.3513 17.3775 33.258 17.5186L33.2121 17.5752C33.0878 17.6995 32.8952 17.7154 32.7541 17.6221L32.6974 17.5752L29.5002 14.3779L26.3029 17.5752C26.1786 17.6995 25.9861 17.7154 25.8449 17.6221L25.7883 17.5752C25.6642 17.451 25.6484 17.2593 25.7414 17.1182L25.7883 17.0615L29.2433 13.6064Z" fill="#F7F7F7" stroke="#F7F7F7"/>
<path d="M20.8633 22.1364H38.1367C38.3373 22.1366 38.4998 22.2991 38.5 22.4996C38.5 22.7004 38.3374 22.8637 38.1367 22.8639H20.8633C20.6626 22.8637 20.5 22.7004 20.5 22.4996C20.5002 22.2991 20.6627 22.1366 20.8633 22.1364Z" fill="#F7F7F7" stroke="#F7F7F7"/>
</svg>
